<svg width="347" height="213" xmlns="http://www.w3.org/2000/svg" xmlns:xlink="http://www.w3.org/1999/xlink" overflow="hidden"><defs><clipPath id="clip0"><path d="M78 64 425 64 425 277 78 277Z" fill-rule="evenodd" clip-rule="evenodd"/></clipPath></defs><g clip-path="url(#clip0)" transform="translate(-78 -64)"><path d="M78 64 251.911 64 253.881 65.6636C256.376 67.9225 258.541 70.0564 260.332 72.0301 288.988 103.608 278.909 157.489 243.732 189.265 217.348 213.097 137.272 260.242 86.7936 269.003L78 270 78 64Z" fill="#FFC000" fill-rule="evenodd"/><path d="M252.018 64 424 64 424 272 407.186 271.403C348.103 266.924 266.87 240.931 214.031 213.777L212 212.661 215.209 210.659C227.24 202.745 237.212 195.324 243.822 189.362 279.073 157.561 289.173 103.639 260.457 72.0363 258.662 70.0611 256.492 67.9255 253.993 65.6649L252.018 64Z" fill="#595959" fill-rule="evenodd"/><rect x="174" y="176" width="150" height="74" fill="#404040"/><text fill="#FFFFFF" font-family="JetBrains Mono,JetBrains Mono_MSFontService,sans-serif" font-weight="400" font-size="53" transform="translate(201.043 231)">Add</text></g></svg>